# xmcd
#
# Track frame offsets:
#	150
#	21811
#	47265
#	67429
#	100180
#
# Disc length: 2329 seconds
#
# Revision: 0
# Processed by: cddbd v1.5.2PL0 Copyright (c) Steve Scherf et al.
# Submitted via: audiograbber 1.83.01
#
DISCID=3c091705
DTITLE=Driftin - Funkloch
DYEAR=2006
DGENRE=Blues
TTITLE0=Viso´s Ballad
TTITLE1=Blues in A
TTITLE2=It all comes back
TTITLE3=Space Techno
TTITLE4=Free Drum Jam
EXTD=
EXTT0=
EXTT1=
EXTT2=
EXTT3=
EXTT4=
PLAYORDER=
